<svg xmlns="http://www.w3.org/2000/svg" width="500" zoomAndPan="magnify"
     viewBox="0 0 375 374.999991" height="500" preserveAspectRatio="xMidYMid meet" version="1.0">
    <defs>
        <g/>
        <clipPath id="74789c3b31">
            <path d="M 42 93 L 309 93 L 309 240.75 L 42 240.75 Z M 42 93 " clip-rule="nonzero"/>
        </clipPath>
    </defs>
    <path fill="#ffffff"
          d="M 260.296875 64.183594 C 260.140625 63.015625 259.886719 61.875 259.527344 60.753906 C 259.164062 59.636719 258.707031 58.558594 258.152344 57.523438 C 257.597656 56.484375 256.957031 55.507812 256.226562 54.585938 C 255.496094 53.667969 254.6875 52.820312 253.800781 52.042969 C 252.917969 51.269531 251.972656 50.582031 250.964844 49.976562 C 249.953125 49.375 248.898438 48.867188 247.800781 48.453125 C 246.699219 48.039062 245.570312 47.726562 244.414062 47.519531 C 243.257812 47.308594 242.089844 47.207031 240.917969 47.207031 L 219.332031 47.207031 L 219.332031 66.332031 C 219.652344 66.476562 219.960938 66.640625 220.257812 66.820312 C 220.558594 67 220.847656 67.195312 221.125 67.40625 C 221.402344 67.621094 221.667969 67.847656 221.917969 68.089844 C 222.167969 68.332031 222.40625 68.585938 222.628906 68.855469 C 222.851562 69.125 223.058594 69.40625 223.25 69.699219 C 223.441406 69.992188 223.613281 70.292969 223.769531 70.605469 C 223.929688 70.917969 224.066406 71.238281 224.1875 71.566406 C 224.308594 71.894531 224.410156 72.226562 224.492188 72.566406 C 224.574219 72.90625 224.636719 73.25 224.679688 73.597656 C 224.726562 73.941406 224.75 74.289062 224.753906 74.640625 C 224.757812 74.988281 224.742188 75.335938 224.707031 75.683594 C 224.671875 76.03125 224.617188 76.378906 224.542969 76.71875 C 224.46875 77.058594 224.378906 77.394531 224.265625 77.726562 C 224.152344 78.058594 224.023438 78.382812 223.875 78.699219 C 223.726562 79.015625 223.558594 79.320312 223.375 79.617188 C 223.191406 79.914062 222.992188 80.199219 222.777344 80.476562 C 222.5625 80.75 222.332031 81.011719 222.085938 81.261719 C 221.839844 81.507812 221.582031 81.742188 221.308594 81.960938 C 221.035156 82.179688 220.753906 82.386719 220.457031 82.570312 C 220.164062 82.757812 219.859375 82.929688 219.542969 83.082031 C 219.230469 83.234375 218.910156 83.367188 218.578125 83.484375 C 218.25 83.601562 217.914062 83.699219 217.574219 83.777344 C 217.234375 83.855469 216.890625 83.914062 216.542969 83.953125 C 216.195312 83.992188 215.847656 84.011719 215.5 84.011719 C 215.148438 84.011719 214.800781 83.992188 214.453125 83.953125 C 214.105469 83.914062 213.761719 83.855469 213.421875 83.777344 C 213.082031 83.699219 212.746094 83.601562 212.417969 83.484375 C 212.089844 83.367188 211.765625 83.234375 211.453125 83.082031 C 211.136719 82.929688 210.832031 82.757812 210.539062 82.570312 C 210.242188 82.386719 209.960938 82.179688 209.6875 81.960938 C 209.417969 81.742188 209.15625 81.507812 208.914062 81.261719 C 208.667969 81.011719 208.4375 80.75 208.21875 80.476562 C 208.003906 80.199219 207.804688 79.914062 207.621094 79.617188 C 207.4375 79.320312 207.273438 79.015625 207.125 78.699219 C 206.972656 78.382812 206.84375 78.058594 206.730469 77.726562 C 206.621094 77.394531 206.527344 77.058594 206.453125 76.71875 C 206.378906 76.378906 206.324219 76.03125 206.289062 75.683594 C 206.253906 75.335938 206.238281 74.988281 206.242188 74.640625 C 206.246094 74.289062 206.273438 73.941406 206.316406 73.597656 C 206.359375 73.25 206.421875 72.90625 206.503906 72.566406 C 206.585938 72.226562 206.6875 71.894531 206.808594 71.566406 C 206.929688 71.238281 207.070312 70.917969 207.226562 70.605469 C 207.382812 70.292969 207.554688 69.992188 207.746094 69.699219 C 207.9375 69.40625 208.144531 69.125 208.367188 68.855469 C 208.589844 68.585938 208.828125 68.332031 209.078125 68.089844 C 209.332031 67.847656 209.59375 67.621094 209.871094 67.40625 C 210.148438 67.195312 210.4375 67 210.738281 66.820312 C 211.039062 66.640625 211.347656 66.476562 211.664062 66.332031 L 211.664062 47.207031 L 141.339844 47.207031 L 141.339844 66.332031 C 141.660156 66.476562 141.96875 66.640625 142.265625 66.820312 C 142.566406 67 142.855469 67.195312 143.132812 67.40625 C 143.410156 67.621094 143.675781 67.847656 143.925781 68.089844 C 144.175781 68.332031 144.414062 68.585938 144.636719 68.855469 C 144.859375 69.125 145.066406 69.40625 145.257812 69.699219 C 145.449219 69.992188 145.621094 70.292969 145.777344 70.605469 C 145.9375 70.917969 146.074219 71.238281 146.195312 71.566406 C 146.316406 71.894531 146.417969 72.226562 146.5 72.566406 C 146.582031 72.90625 146.644531 73.25 146.6875 73.597656 C 146.734375 73.941406 146.757812 74.289062 146.761719 74.640625 C 146.765625 74.988281 146.75 75.335938 146.714844 75.683594 C 146.679688 76.03125 146.625 76.378906 146.550781 76.71875 C 146.476562 77.058594 146.386719 77.394531 146.273438 77.726562 C 146.160156 78.058594 146.03125 78.382812 145.882812 78.699219 C 145.734375 79.015625 145.566406 79.320312 145.382812 79.617188 C 145.199219 79.914062 145 80.199219 144.785156 80.476562 C 144.570312 80.75 144.339844 81.011719 144.09375 81.261719 C 143.847656 81.507812 143.589844 81.742188 143.316406 81.960938 C 143.042969 82.179688 142.761719 82.386719 142.464844 82.570312 C 142.171875 82.757812 141.867188 82.929688 141.550781 83.082031 C 141.238281 83.234375 140.917969 83.367188 140.585938 83.484375 C 140.257812 83.601562 139.921875 83.699219 139.582031 83.777344 C 139.242188 83.855469 138.898438 83.914062 138.550781 83.953125 C 138.203125 83.992188 137.855469 84.011719 137.507812 84.011719 C 137.15625 84.011719 136.808594 83.992188 136.460938 83.953125 C 136.113281 83.914062 135.769531 83.855469 135.429688 83.777344 C 135.089844 83.699219 134.753906 83.601562 134.425781 83.484375 C 134.097656 83.367188 133.773438 83.234375 133.460938 83.082031 C 133.144531 82.929688 132.839844 82.757812 132.546875 82.570312 C 132.25 82.386719 131.96875 82.179688 131.695312 81.960938 C 131.425781 81.742188 131.164062 81.507812 130.921875 81.261719 C 130.675781 81.011719 130.445312 80.75 130.226562 80.476562 C 130.011719 80.199219 129.8125 79.914062 129.628906 79.617188 C 129.445312 79.320312 129.28125 79.015625 129.132812 78.699219 C 128.980469 78.382812 128.851562 78.058594 128.738281 77.726562 C 128.628906 77.394531 128.535156 77.058594 128.460938 76.71875 C 128.386719 76.378906 128.332031 76.03125 128.296875 75.683594 C 128.261719 75.335938 128.246094 74.988281 128.25 74.640625 C 128.253906 74.289062 128.28125 73.941406 128.324219 73.597656 C 128.367188 73.25 128.429688 72.90625 128.511719 72.566406 C 128.597656 72.226562 128.699219 71.894531 128.816406 71.566406 C 128.9375 71.238281 129.078125 70.917969 129.234375 70.605469 C 129.390625 70.292969 129.5625 69.992188 129.753906 69.699219 C 129.945312 69.40625 130.152344 69.125 130.375 68.855469 C 130.597656 68.585938 130.835938 68.332031 131.085938 68.089844 C 131.339844 67.847656 131.601562 67.621094 131.878906 67.40625 C 132.15625 67.195312 132.445312 67 132.746094 66.820312 C 133.046875 66.640625 133.355469 66.476562 133.671875 66.332031 L 133.671875 47.207031 L 118.382812 47.207031 C 117.207031 47.207031 116.042969 47.308594 114.882812 47.519531 C 113.726562 47.726562 112.597656 48.039062 111.5 48.453125 C 110.398438 48.867188 109.34375 49.375 108.335938 49.976562 C 107.324219 50.582031 106.378906 51.269531 105.496094 52.042969 C 104.609375 52.820312 103.800781 53.667969 103.070312 54.585938 C 102.339844 55.507812 101.695312 56.484375 101.140625 57.523438 C 100.585938 58.558594 100.128906 59.636719 99.769531 60.753906 C 99.410156 61.875 99.152344 63.015625 98.996094 64.183594 L 89.078125 139.054688 L 88.617188 142.9375 L 84.316406 175.3125 C 91.734375 177.871094 102.628906 179.613281 116.949219 179.613281 C 136.894531 179.613281 159.859375 176.289062 183.226562 169.945312 C 225.417969 158.589844 254.878906 141.558594 268.6875 127.648438 Z M 202.53125 102.855469 L 189.875 150.09375 C 188.394531 155.636719 180.609375 155.871094 178.804688 150.425781 L 171.09375 127.214844 L 147.882812 119.507812 C 142.441406 117.699219 142.671875 109.921875 148.214844 108.433594 L 195.453125 95.777344 C 195.699219 95.710938 195.945312 95.664062 196.195312 95.628906 C 196.445312 95.597656 196.695312 95.582031 196.949219 95.582031 C 197.203125 95.582031 197.453125 95.597656 197.703125 95.628906 C 197.953125 95.664062 198.203125 95.710938 198.445312 95.777344 C 198.6875 95.84375 198.925781 95.925781 199.160156 96.019531 C 199.394531 96.117188 199.621094 96.230469 199.839844 96.355469 C 200.058594 96.480469 200.265625 96.621094 200.46875 96.773438 C 200.667969 96.929688 200.855469 97.09375 201.035156 97.273438 C 201.214844 97.453125 201.378906 97.640625 201.535156 97.84375 C 201.6875 98.042969 201.828125 98.25 201.953125 98.46875 C 202.082031 98.6875 202.191406 98.914062 202.289062 99.148438 C 202.386719 99.382812 202.464844 99.621094 202.53125 99.863281 C 202.597656 100.109375 202.644531 100.355469 202.679688 100.605469 C 202.710938 100.855469 202.730469 101.109375 202.730469 101.359375 C 202.730469 101.613281 202.710938 101.863281 202.679688 102.113281 C 202.644531 102.363281 202.597656 102.613281 202.53125 102.855469 Z M 202.53125 102.855469 "
          fill-opacity="1" fill-rule="nonzero"/>
    <path fill="#ffffff"
          d="M 219.332031 44.953125 L 219.332031 47.207031 L 211.664062 47.207031 L 211.664062 44.953125 C 211.664062 43.804688 211.605469 42.652344 211.496094 41.507812 C 211.382812 40.359375 211.214844 39.222656 210.988281 38.09375 C 210.765625 36.964844 210.488281 35.847656 210.152344 34.746094 C 209.820312 33.640625 209.429688 32.558594 208.992188 31.496094 C 208.550781 30.429688 208.058594 29.390625 207.515625 28.375 C 206.972656 27.359375 206.382812 26.371094 205.742188 25.414062 C 205.101562 24.457031 204.417969 23.53125 203.6875 22.640625 C 202.957031 21.75 202.183594 20.898438 201.371094 20.082031 C 200.554688 19.265625 199.703125 18.496094 198.8125 17.765625 C 197.921875 17.03125 197 16.347656 196.042969 15.707031 C 195.085938 15.066406 194.097656 14.476562 193.082031 13.933594 C 192.066406 13.390625 191.027344 12.898438 189.960938 12.457031 C 188.898438 12.015625 187.816406 11.628906 186.710938 11.292969 C 185.609375 10.957031 184.492188 10.679688 183.363281 10.453125 C 182.234375 10.230469 181.097656 10.058594 179.949219 9.949219 C 178.804688 9.835938 177.65625 9.777344 176.503906 9.777344 C 175.351562 9.777344 174.203125 9.835938 173.054688 9.949219 C 171.910156 10.058594 170.769531 10.230469 169.640625 10.453125 C 168.511719 10.679688 167.394531 10.957031 166.292969 11.292969 C 165.191406 11.628906 164.109375 12.015625 163.042969 12.457031 C 161.980469 12.898438 160.941406 13.390625 159.925781 13.933594 C 158.90625 14.476562 157.921875 15.066406 156.964844 15.707031 C 156.007812 16.347656 155.082031 17.03125 154.191406 17.765625 C 153.300781 18.496094 152.449219 19.265625 151.636719 20.082031 C 150.820312 20.898438 150.046875 21.75 149.316406 22.640625 C 148.585938 23.53125 147.902344 24.457031 147.261719 25.414062 C 146.621094 26.371094 146.03125 27.359375 145.488281 28.375 C 144.945312 29.390625 144.453125 30.429688 144.015625 31.496094 C 143.574219 32.558594 143.1875 33.640625 142.851562 34.746094 C 142.519531 35.847656 142.238281 36.964844 142.015625 38.09375 C 141.792969 39.222656 141.625 40.359375 141.511719 41.507812 C 141.398438 42.652344 141.34375 43.804688 141.34375 44.953125 L 141.34375 47.207031 L 133.671875 47.207031 L 133.671875 44.953125 C 133.667969 43.550781 133.734375 42.148438 133.867188 40.75 C 134 39.351562 134.203125 37.960938 134.472656 36.582031 C 134.746094 35.203125 135.082031 33.839844 135.488281 32.496094 C 135.890625 31.148438 136.363281 29.828125 136.898438 28.527344 C 137.433594 27.226562 138.03125 25.957031 138.691406 24.714844 C 139.351562 23.476562 140.070312 22.269531 140.847656 21.101562 C 141.625 19.929688 142.460938 18.800781 143.351562 17.714844 C 144.242188 16.625 145.179688 15.585938 146.171875 14.589844 C 147.164062 13.59375 148.203125 12.652344 149.289062 11.757812 C 150.375 10.863281 151.5 10.027344 152.667969 9.246094 C 153.835938 8.464844 155.039062 7.742188 156.277344 7.078125 C 157.519531 6.414062 158.785156 5.8125 160.082031 5.273438 C 161.382812 4.734375 162.703125 4.261719 164.046875 3.851562 C 165.390625 3.445312 166.753906 3.101562 168.132812 2.828125 C 169.511719 2.554688 170.898438 2.347656 172.296875 2.207031 C 173.695312 2.070312 175.097656 2.003906 176.503906 2.003906 C 177.90625 2.003906 179.308594 2.070312 180.707031 2.207031 C 182.105469 2.347656 183.496094 2.554688 184.875 2.828125 C 186.253906 3.101562 187.613281 3.445312 188.957031 3.851562 C 190.300781 4.261719 191.625 4.734375 192.921875 5.273438 C 194.21875 5.8125 195.488281 6.414062 196.726562 7.078125 C 197.964844 7.742188 199.167969 8.464844 200.335938 9.246094 C 201.503906 10.027344 202.628906 10.863281 203.714844 11.757812 C 204.800781 12.652344 205.839844 13.59375 206.832031 14.589844 C 207.824219 15.585938 208.765625 16.625 209.65625 17.714844 C 210.546875 18.800781 211.378906 19.929688 212.15625 21.101562 C 212.9375 22.269531 213.65625 23.476562 214.316406 24.714844 C 214.976562 25.957031 215.574219 27.226562 216.109375 28.527344 C 216.644531 29.828125 217.113281 31.148438 217.519531 32.496094 C 217.921875 33.839844 218.261719 35.203125 218.53125 36.582031 C 218.800781 37.960938 219.003906 39.351562 219.140625 40.75 C 219.273438 42.148438 219.335938 43.550781 219.332031 44.953125 Z M 219.332031 44.953125 "
          fill-opacity="1" fill-rule="nonzero"/>
    <g clip-path="url(#74789c3b31)">
        <path fill="#f00480"
              d="M 308.125 118.78125 C 304.699219 106.148438 290.890625 97.457031 270.535156 93.160156 C 279.585938 96.585938 285.519531 101.699219 287.308594 108.296875 C 289.867188 117.859375 283.371094 129.0625 270.332031 140.054688 C 252.378906 155.246094 221.953125 170.078125 185.898438 179.792969 C 144.269531 191.042969 105.65625 192.628906 82.949219 185.574219 C 71.699219 182.09375 64.332031 176.570312 62.339844 169.054688 C 59.371094 158.3125 68.015625 145.425781 84.585938 133.152344 C 55.230469 151.5625 38.761719 172.683594 43.519531 190.226562 C 46.792969 202.398438 59.78125 210.9375 79.011719 215.386719 L 78.601562 218.558594 C 78.257812 221.027344 78.410156 223.464844 79.0625 225.871094 C 79.320312 226.921875 79.667969 227.941406 80.097656 228.933594 C 80.527344 229.925781 81.035156 230.875 81.621094 231.78125 C 82.210938 232.6875 82.867188 233.539062 83.597656 234.335938 C 84.328125 235.132812 85.121094 235.863281 85.972656 236.53125 C 86.824219 237.195312 87.722656 237.785156 88.671875 238.300781 C 89.625 238.816406 90.609375 239.25 91.632812 239.597656 C 92.65625 239.949219 93.699219 240.214844 94.765625 240.390625 C 95.832031 240.566406 96.90625 240.652344 97.984375 240.652344 L 261.332031 240.652344 C 262.023438 240.652344 262.714844 240.613281 263.40625 240.542969 C 264.09375 240.46875 264.777344 240.359375 265.457031 240.210938 C 266.132812 240.066406 266.804688 239.882812 267.460938 239.667969 C 268.121094 239.449219 268.765625 239.195312 269.398438 238.910156 C 270.027344 238.625 270.644531 238.304688 271.242188 237.953125 C 271.839844 237.601562 272.417969 237.222656 272.976562 236.808594 C 273.53125 236.394531 274.066406 235.953125 274.574219 235.484375 C 275.085938 235.011719 275.570312 234.519531 276.027344 233.996094 C 276.484375 233.476562 276.914062 232.929688 277.3125 232.363281 C 277.710938 231.796875 278.082031 231.210938 278.417969 230.605469 C 278.753906 229.996094 279.058594 229.375 279.328125 228.738281 C 279.601562 228.097656 279.835938 227.445312 280.039062 226.785156 C 280.238281 226.121094 280.40625 225.445312 280.535156 224.765625 C 280.664062 224.085938 280.757812 223.398438 280.8125 222.707031 C 280.871094 222.015625 280.890625 221.324219 280.875 220.628906 C 280.855469 219.9375 280.804688 219.246094 280.710938 218.558594 L 275.90625 182.351562 L 274.421875 170.996094 C 299.125 153.8125 312.472656 134.789062 308.125 118.78125 Z M 308.125 118.78125 "
              fill-opacity="1" fill-rule="nonzero"/>
    </g>
    <path stroke-linecap="butt" transform="matrix(1.518505, -0.108807, 0.108807, 1.518505, -0.68237, 211.255239)"
          fill="none" stroke-linejoin="miter"
          d="M 35.518326 43.59757 C 34.401334 43.713038 33.074688 43.702869 31.533086 43.569256 C 29.994227 43.433266 28.685242 42.925311 27.609059 42.040456 C 26.492126 41.078079 25.826761 39.988569 25.615156 38.777226 C 25.403551 37.565883 25.491909 36.476359 25.874562 35.515964 C 26.299295 34.399093 27.38637 32.367593 29.138161 29.424205 C 30.889952 26.480817 33.284375 22.467041 36.326365 17.385803 C 37.094475 16.000279 37.847237 14.577642 38.577157 13.114782 C 39.309637 11.652105 40.040833 10.207343 40.770561 8.783055 C 37.960562 8.939276 35.730447 9.044441 34.074912 9.100741 C 32.419193 9.1596 31.100417 9.111408 30.118582 8.956166 C 29.139124 8.803667 28.242878 8.495066 27.434781 8.033291 C 26.04964 7.188036 25.201872 5.915675 24.893486 4.22407 C 24.778471 3.531562 24.749771 2.711473 24.807019 1.76892 C 24.864267 0.826368 25.067904 0.0666573 25.412812 -0.510578 C 25.83819 -1.241537 26.47229 -1.762037 27.320046 -2.069149 C 28.165426 -2.379005 29.012799 -2.608972 29.85979 -2.761794 C 31.515381 -3.070188 33.851711 -3.185749 36.8739 -3.108109 C 39.896271 -3.033028 43.831784 -2.992843 48.680804 -2.992671 C 50.527719 -2.955512 52.348284 -2.80191 54.13738 -2.532231 C 55.926475 -2.262552 57.359916 -1.588761 58.437702 -0.510858 C 58.862639 -0.0868277 59.159738 0.577568 59.331742 1.479954 C 59.506122 2.385083 59.572271 3.32876 59.535489 4.308793 C 59.495965 5.291202 59.362505 6.148548 59.130174 6.877906 C 58.90041 7.571434 58.553102 8.253966 58.090626 8.928247 C 57.630709 9.60271 57.206064 10.323433 56.821626 11.09334 C 54.395573 15.943462 52.280455 20.080149 50.470971 23.505592 C 48.661487 26.931036 47.084653 29.838084 45.735533 32.22381 C 48.468395 32.031193 50.769453 31.869374 52.636517 31.73305 C 54.503397 31.599286 56.032043 31.626502 57.224648 31.819998 C 58.111614 31.935002 58.985217 32.128792 59.853502 32.396803 C 60.719044 32.667189 61.362421 33.166037 61.785827 33.898649 C 62.132852 34.476588 62.353699 35.235845 62.450742 36.179163 C 62.547785 37.122482 62.557478 37.92063 62.479637 38.576167 C 62.247822 40.267651 61.441339 41.578397 60.055619 42.50036 C 59.284051 43.000719 58.399907 43.348956 57.398434 43.539585 C 56.399337 43.732956 55.041956 43.828627 53.328666 43.82934 C 51.615376 43.830053 49.336482 43.790239 46.4865 43.714648 C 43.63926 43.636682 39.981435 43.598387 35.518326 43.59757 Z M 77.251677 41.288712 C 74.789712 40.788177 72.596218 39.807827 70.67138 38.345103 C 68.746541 36.882379 67.177708 35.082451 65.964881 32.94532 C 64.754429 30.810932 63.992636 28.482317 63.684618 25.959844 C 63.376418 23.43993 63.609336 20.90734 64.377704 18.369386 C 65.185403 15.713346 66.437062 13.43125 68.129938 11.525475 C 69.825191 9.622443 71.776842 8.090206 73.992019 6.936992 C 76.204821 5.781035 78.513328 5.012656 80.917907 4.626735 C 83.324861 4.243557 85.661893 4.261813 87.933937 4.684429 C 90.203238 5.109421 92.234795 5.944401 94.025499 7.196864 C 95.813826 8.446585 97.209018 10.120883 98.211075 12.21976 C 99.210756 14.315894 99.633941 16.84662 99.480631 19.811937 C 99.40247 21.082263 98.855074 22.187771 97.8357 23.13084 C 96.816326 24.073908 95.49608 24.871941 93.879898 25.527865 C 92.263899 26.18123 90.494191 26.682097 88.568399 27.027723 C 86.645167 27.373534 84.710262 27.595031 82.766245 27.692399 C 80.822411 27.787207 79.060861 27.779317 77.484521 27.663794 C 78.215476 29.740673 79.195394 31.107393 80.427018 31.761578 C 81.6612 32.415947 83.075005 32.609859 84.671175 32.340938 C 86.270087 32.069641 87.934313 31.568933 89.666413 30.838998 C 91.128696 30.069149 92.330184 29.779665 93.273254 29.973289 C 94.216508 30.164353 95.169687 30.934926 96.132974 32.282447 C 96.787425 33.129367 97.065811 34.090824 96.967949 35.169378 C 96.87283 36.245556 96.40006 37.171197 95.555308 37.93899 C 94.477788 38.93963 93.158093 39.729986 91.598964 40.30768 C 90.039836 40.885374 88.405795 41.28792 86.691356 41.520069 C 84.97966 41.749843 83.296148 41.83758 81.641005 41.780721 C 79.986044 41.721303 78.523788 41.557361 77.251677 41.288712 Z M 77.484101 20.561282 C 77.484101 20.561282 77.917355 20.582036 78.781486 20.620803 C 79.64836 20.657193 80.727297 20.677909 82.016104 20.67765 C 83.30491 20.67739 84.603603 20.610955 85.912366 20.475787 C 87.221129 20.340618 88.308534 20.099553 89.17458 19.752592 C 90.040443 19.40819 90.475093 18.906841 90.473046 18.253297 C 90.47387 17.021162 90.039909 16.076854 89.176098 15.423299 C 88.309728 14.769562 87.231239 14.383592 85.943006 14.268134 C 84.652215 14.152492 83.352405 14.306309 82.046137 14.729769 C 80.73731 15.153045 79.647608 15.856983 78.782333 16.83939 C 77.917242 17.819237 77.483523 19.061513 77.484101 20.561282 Z M 105.305626 41.230647 C 103.997502 40.96199 102.967089 40.587182 102.216947 40.106408 C 101.466988 39.623075 101.014705 38.862669 100.860098 37.825191 C 100.745658 37.016965 100.686869 35.862876 100.686474 34.360548 C 100.686079 32.85822 100.695859 30.818983 100.715998 28.240277 C 100.733577 25.661389 100.706701 22.410482 100.627875 18.484449 C 100.628821 16.712112 100.591687 15.184 100.514282 13.89481 C 100.436876 12.605621 100.485386 11.497806 100.657069 10.573743 C 100.83131 9.649863 101.244084 8.879414 101.900324 8.265321 C 102.515425 7.686867 103.419693 7.273189 104.613129 7.024287 C 105.806748 6.772826 107.057364 6.695229 108.364979 6.791497 C 109.675152 6.887949 110.809611 7.139017 111.771099 7.542327 C 112.734962 7.94838 113.292591 8.495105 113.446179 9.187805 C 114.138042 8.686879 114.744324 8.303298 115.265208 8.034502 C 115.783716 7.762963 116.352294 7.582475 116.968932 7.485176 C 117.583011 7.387693 118.373489 7.341436 119.335615 7.340921 C 120.603764 7.341753 121.933671 7.485922 123.317657 7.772877 C 124.704018 8.062575 125.993246 8.630853 127.187899 9.477894 C 128.379992 10.324751 129.323188 11.59366 130.014742 13.286996 C 130.899988 15.364641 131.488953 18.023005 131.777068 21.254043 C 132.065 24.487641 132.210097 27.991399 132.209984 31.762575 C 132.209987 33.378062 132.142414 34.716029 132.007446 35.773917 C 131.872295 36.834364 131.382344 37.748484 130.53485 38.518653 C 129.958697 39.056167 129.167779 39.431663 128.167399 39.64295 C 127.167018 39.854236 126.167053 39.844323 125.164943 39.613028 C 124.16521 39.384475 123.35602 38.902042 122.742127 38.171215 C 122.24081 37.592511 121.905114 37.035964 121.730287 36.496089 C 121.557835 35.958956 121.479918 35.323127 121.498911 34.591345 C 121.520463 33.859747 121.529993 32.936927 121.527684 31.820326 C 121.529083 30.472473 121.489708 29.155139 121.412303 27.865949 C 121.337457 26.576943 121.202129 25.162699 121.009062 23.620841 C 120.854385 22.081734 120.528146 20.926488 120.027603 20.157479 C 119.52706 19.388471 118.9502 19.002431 118.296656 19.004478 C 116.871657 19.002697 115.850681 19.752718 115.236288 21.254725 C 114.619335 22.756549 114.311664 25.219472 114.31309 28.646052 C 114.312843 31.377957 114.236155 33.417544 114.080465 34.764632 C 113.927335 36.111903 113.697123 37.170684 113.387272 37.940791 C 112.812017 39.363285 111.742908 40.354238 110.185064 40.914017 C 108.624843 41.471054 106.999095 41.578364 105.305626 41.230647 Z M 154.894467 43.886094 C 152.815924 43.886359 150.793925 43.636006 148.831029 43.135217 C 146.86795 42.636987 145.099474 41.720533 143.519933 40.393165 C 141.94295 39.065981 140.681256 37.180019 139.73741 34.735463 C 138.796124 32.29109 138.285876 29.144459 138.209227 25.295755 C 138.208137 24.449347 138.219325 23.46748 138.237491 22.352347 C 138.255839 21.234654 138.285007 19.965963 138.322802 18.540972 L 138.266131 18.542056 C 136.918277 18.540657 135.822782 18.176621 134.974893 17.444462 C 133.819579 16.443322 133.244379 15.172485 133.243993 13.634143 C 133.242641 12.324679 133.64761 11.304145 134.456156 10.574916 C 135.417384 9.68942 136.650533 9.245286 138.150118 9.247267 L 138.669846 9.245921 C 138.709313 8.515606 138.748422 7.754397 138.786989 6.964851 C 138.825373 6.177865 138.863581 5.357425 138.901063 4.511209 C 138.940148 3.858039 138.939376 3.222594 138.901124 2.607614 C 138.863055 1.990075 138.901757 1.414051 139.017596 0.874424 C 139.209179 0.0675459 139.585364 -0.587193 140.143411 -1.087418 C 140.701457 -1.587642 141.346304 -1.935018 142.077767 -2.126987 C 142.884009 -2.357329 143.857871 -2.52164 144.991494 -2.617909 C 146.127676 -2.713995 147.196727 -2.627104 148.196085 -2.357419 C 149.198187 -2.09011 149.908098 -1.55048 150.333863 -0.743098 C 150.677946 -0.088198 150.83422 0.85422 150.794823 2.086164 C 150.755426 3.318108 150.698057 4.800862 150.620341 6.531684 C 150.58203 6.994549 150.564377 7.456322 150.564639 7.919378 C 150.562525 8.379692 150.543596 8.823366 150.50566 9.245099 L 151.544932 9.244966 C 153.237564 9.245345 154.50981 9.727516 155.356733 10.688552 C 156.203474 11.652148 156.626623 12.71144 156.626365 13.863871 C 156.626244 14.404073 156.547885 14.923234 156.393665 15.424097 C 156.087775 16.462021 155.681778 17.17379 155.183353 17.559954 C 154.643222 18.061463 154.009179 18.329868 153.278481 18.367545 C 152.544658 18.484745 151.756005 18.541422 150.909597 18.542512 L 150.217664 18.541808 C 150.139576 21.92925 150.196711 24.757873 150.391625 27.027861 C 150.583797 29.300226 151.094001 31.011436 151.91931 32.166428 C 152.747178 33.321604 154.027994 33.899569 155.759382 33.89758 C 156.415303 33.898275 156.944278 34.23458 157.348684 34.909238 C 157.750531 35.583712 158.002623 36.409518 158.096915 37.391226 C 158.193767 38.373117 158.145832 39.365213 157.953292 40.364955 C 157.760753 41.364697 157.404818 42.203529 156.885854 42.876335 C 156.36689 43.54914 155.702119 43.887371 154.894467 43.886094 Z M 172.845839 41.288005 C 170.381314 40.787287 168.187821 39.806937 166.262982 38.344213 C 164.338144 36.881489 162.769311 35.081561 161.558859 32.947173 C 160.346032 30.810042 159.584238 28.481427 159.276221 25.958954 C 158.970579 23.439223 159.200755 20.909009 159.969306 18.368496 C 160.779564 15.712639 162.02848 13.432919 163.723916 11.527328 C 165.416793 9.621553 167.37082 8.092059 169.583621 6.936102 C 171.79624 5.782705 174.10493 5.011766 176.511885 4.628588 C 178.916464 4.242668 181.256055 4.261107 183.525356 4.686099 C 185.7974 5.108715 187.826214 5.946071 189.617101 7.195974 C 191.405245 8.448254 192.800437 10.122552 193.802677 12.21887 C 194.802175 14.317563 195.22536 16.848289 195.072233 19.811047 C 194.996631 21.081556 194.446492 22.189441 193.427302 23.12995 C 192.407928 24.073018 191.090058 24.873794 189.4715 25.526975 C 187.855501 26.18034 186.085794 26.681207 184.159818 27.029393 C 182.236585 27.375203 180.301681 27.5967 178.357847 27.691509 C 176.41383 27.788876 174.655022 27.77861 173.076123 27.662904 C 173.806895 29.742342 174.789372 31.109246 176.020996 31.763431 C 177.252619 32.417616 178.666607 32.608969 180.262777 32.340048 C 181.861505 32.071311 183.525732 31.570603 185.258015 30.838108 C 186.720298 30.068259 187.924162 29.781518 188.867416 29.972582 C 189.807927 30.166023 190.761289 30.934036 191.724576 32.281557 C 192.379027 33.128477 192.657413 34.089934 192.56211 35.168671 C 192.464248 36.247225 191.994221 37.17049 191.146727 37.940659 C 190.069207 38.9413 188.749695 39.729096 187.190567 40.30679 C 185.633998 40.884667 183.997214 41.289589 182.285518 41.519363 C 180.571079 41.751512 178.887751 41.83669 177.232607 41.779831 C 175.577646 41.720413 174.115207 41.55903 172.845839 41.288005 Z M 173.07552 20.562951 C 173.07552 20.562951 173.508957 20.581146 174.375648 20.620096 C 175.239779 20.658862 176.318899 20.677019 177.607706 20.67676 C 178.896512 20.6765 180.195205 20.610065 181.503968 20.474897 C 182.812731 20.339728 183.899953 20.101223 184.765999 19.754262 C 185.632045 19.4073 186.066695 18.905951 186.067207 18.252591 C 186.065472 17.020272 185.633887 16.078707 184.767517 15.424969 C 183.90133 14.768672 182.822657 14.385262 181.534425 14.269803 C 180.243634 14.154161 178.946383 14.308162 177.637556 14.731438 C 176.328728 15.154714 175.241769 15.856276 174.373935 16.8385 C 173.508661 17.820907 173.075125 19.060623 173.07552 20.562951 Z M 212.789484 43.887728 C 210.711124 43.885434 208.691684 43.635264 206.728605 43.137035 C 204.765709 42.636245 202.994491 41.722167 201.417508 40.394983 C 199.83815 39.065056 198.579015 37.179278 197.635169 34.734721 C 196.69114 32.292724 196.183452 29.146277 196.104243 25.29739 C 196.066999 23.447715 196.106328 20.888392 196.219854 17.616677 C 196.33594 14.345146 196.527954 9.978054 196.798639 4.513027 C 196.837907 3.857298 196.837136 3.221852 196.798883 2.606873 C 196.760631 1.991893 196.799516 1.41331 196.912796 0.873499 C 197.106938 0.0668045 197.480564 -0.588118 198.038611 -1.088342 C 198.596657 -1.588567 199.241504 -1.935943 199.972967 -2.127912 C 200.781768 -2.358071 201.753071 -2.522564 202.889253 -2.618651 C 204.025435 -2.714737 205.091926 -2.628029 206.093844 -2.35816 C 207.093203 -2.088476 207.805857 -1.551222 208.228879 -0.741464 C 208.575705 -0.0889394 208.729236 0.855854 208.692399 2.087981 C 208.653001 3.319925 208.595816 4.800121 208.517917 6.533502 C 208.32642 11.03697 208.171059 15.000243 208.056767 18.42625 C 207.939915 21.852072 207.997591 24.709031 208.229612 26.999685 C 208.461632 29.290339 208.989017 31.013071 209.817069 32.165687 C 210.644937 33.320862 211.925753 33.898827 213.656958 33.899398 C 214.310502 33.89735 214.839294 34.236215 215.243884 34.908313 C 215.64829 35.58297 215.897639 36.411153 215.994674 37.390485 C 216.091526 38.372376 216.043591 39.364472 215.851051 40.364214 C 215.658328 41.366515 215.302577 42.202788 214.783613 42.875593 C 214.261906 43.550774 213.599878 43.88663 212.789484 43.887728 Z M 212.789484 43.887728 "
          stroke="#010768" stroke-width="10.19877" stroke-opacity="1" stroke-miterlimit="4"/>
    <path stroke-linecap="butt" transform="matrix(1.518505, -0.108807, 0.108807, 1.518505, -0.68237, 211.255239)"
          fill="none" stroke-linejoin="miter"
          d="M 73.263652 94.504376 C 70.762219 94.734156 68.204371 94.638339 65.585172 94.214 C 62.96835 93.792404 60.543929 92.983295 58.311728 91.789232 C 56.079343 90.597728 54.250323 89.018394 52.82686 87.056529 C 52.211556 86.094083 51.768674 84.987072 51.498213 83.735498 C 51.230312 82.484108 51.268242 81.272638 51.614746 80.098714 C 51.96125 78.924789 52.673868 77.99061 53.749857 77.298551 C 55.096804 76.450983 56.311121 76.018362 57.38769 76.000322 C 58.464442 75.979723 59.476055 76.22199 60.417777 76.721636 C 61.362059 77.221466 62.237574 77.855279 63.046699 78.625819 C 64.085275 79.281607 65.135005 79.925331 66.193147 80.559368 C 67.251106 81.195965 68.290855 81.512275 69.309469 81.513235 C 70.330825 81.511818 71.28266 80.936913 72.168082 79.781025 C 72.707577 78.857592 72.811777 78.049598 72.4858 77.357408 C 72.157447 76.662476 71.619391 76.057988 70.86944 75.538641 C 70.11949 75.019294 69.31852 74.565747 68.474027 74.18111 C 67.626974 73.796289 66.932737 73.468722 66.393876 73.198591 C 64.661772 72.31304 62.998569 71.507026 61.399516 70.775065 C 59.803023 70.043287 58.368522 69.204784 57.09839 68.2623 C 55.828259 67.319815 54.827459 66.136814 54.095992 64.713296 C 53.364708 63.287219 52.999133 61.460322 52.999633 59.227488 C 53.039218 56.341484 53.789471 53.876833 55.252586 51.838835 C 56.713325 49.798095 58.686926 48.210837 61.168453 47.074136 C 63.652356 45.940177 66.433024 45.331678 69.512465 45.256502 C 72.205605 45.29513 74.776377 45.641398 77.219661 46.294941 C 79.662946 46.948484 81.828463 47.960271 83.714019 49.325 C 85.601951 50.692472 87.081935 52.511757 88.159087 54.783223 C 88.73837 55.781675 88.969205 56.832332 88.852145 57.927517 C 88.73746 59.025445 88.33415 59.986932 87.642031 60.814539 C 86.947353 61.641961 85.984555 62.190357 84.753639 62.459725 C 83.560721 62.845003 82.386708 62.894647 81.231782 62.606098 C 80.076857 62.317548 78.9525 61.853692 77.855786 61.219463 C 76.756512 60.585051 75.710074 59.931273 74.708795 59.257578 C 73.707516 58.583884 72.755198 58.052609 71.851474 57.668873 C 70.945191 57.284953 70.109044 57.178736 69.337915 57.349856 C 68.569163 57.523718 67.858077 58.149316 67.202098 59.226465 C 66.81766 59.996372 66.837431 60.689772 67.261411 61.306666 C 67.683015 61.920818 68.298415 62.451103 69.107796 62.894963 C 69.91736 63.336263 70.743205 63.729854 71.590449 64.076102 C 72.43751 64.42491 73.111464 64.712437 73.611944 64.943803 C 75.53511 65.711851 77.384216 66.580061 79.154693 67.54039 C 80.924987 68.503278 82.511346 69.591898 83.916514 70.803874 C 85.321681 72.01585 86.427004 73.391555 87.237602 74.931358 C 88.04564 76.470977 88.411415 78.223288 88.33255 80.185547 C 88.256378 83.18726 87.486551 85.709675 86.023436 87.747673 C 84.562697 89.788413 82.703722 91.355587 80.453823 92.454865 C 78.201548 93.5514 75.804032 94.233656 73.263652 94.504376 Z M 95.140494 93.522654 C 93.829994 93.251254 92.80214 92.87663 92.051998 92.395856 C 91.299297 91.914899 90.847014 91.154493 90.695149 90.114639 C 90.578149 89.306229 90.491025 88.152682 90.433959 86.651439 C 90.376893 85.150195 90.358338 83.1115 90.375917 80.532611 C 90.396055 77.953906 90.423474 74.699173 90.462926 70.773897 C 90.425244 68.427712 90.338394 66.049708 90.202009 63.645002 C 90.068366 61.23792 89.981332 58.862475 89.943834 56.513731 C 89.906144 54.20356 89.923219 52.242018 90.000544 50.624355 C 90.077686 49.009251 90.425274 47.891997 91.040383 47.27753 C 91.655675 46.660503 92.511683 46.238222 93.608775 46.005569 C 94.705683 45.775475 95.841865 45.679388 97.014762 45.717127 C 98.190218 45.755049 99.198921 45.930224 100.046357 46.237899 C 100.816839 46.506619 101.491119 46.969095 102.066822 47.622585 C 102.645085 48.276258 103.049809 49.161878 103.280996 50.279443 C 103.434392 51.010716 103.482116 51.78072 103.42435 52.586896 C 103.366401 53.395632 103.355978 54.223208 103.395641 55.069808 C 103.473564 56.495373 103.530112 57.860241 103.570037 59.169897 C 103.607402 60.479369 103.646426 61.729794 103.684366 62.923548 C 104.452992 62.500151 105.339504 62.19067 106.340977 62.000042 C 107.340074 61.80667 108.283392 61.709627 109.168189 61.711288 C 112.980681 61.709217 115.942232 63.171624 118.06052 66.099061 C 119.407221 67.983396 120.407355 70.504014 121.063482 73.661097 C 121.71705 76.817997 122.042589 80.280663 122.044851 84.054582 C 122.044855 85.670069 121.977281 87.008036 121.842314 88.065924 C 121.707346 89.123812 121.217395 90.037932 120.369901 90.808101 C 119.483451 91.655224 118.367487 92.079458 117.022193 92.078243 C 115.674156 92.079403 114.537202 91.540043 113.613707 90.462906 C 113.11495 89.884385 112.776694 89.327655 112.604426 88.787963 C 112.432157 88.248271 112.35424 87.612442 112.37305 86.883219 C 112.392043 86.151438 112.401757 85.226058 112.401823 84.112201 C 112.403222 82.764347 112.364031 81.444454 112.286626 80.155264 C 112.209221 78.866075 112.073893 77.451831 111.883202 75.912716 C 111.728524 74.373608 111.402285 73.218362 110.901742 72.449354 C 110.401383 71.677786 109.82434 71.294305 109.168419 71.29361 C 107.745796 71.294571 106.552431 72.045102 105.588324 73.545203 C 104.626775 75.045487 104.146715 77.50892 104.145581 80.935317 C 104.145335 83.667221 104.068463 85.709368 103.915333 87.056639 C 103.762202 88.40391 103.529615 89.459948 103.222323 90.230239 C 102.682898 91.6553 101.624027 92.646987 100.045708 93.205299 C 98.470132 93.761235 96.834146 93.867812 95.140494 93.522654 Z M 132.719057 90.751454 C 130.138943 89.673946 128.101328 88.133686 126.598352 86.132683 C 125.098118 84.129304 124.079087 81.908306 123.539067 79.464389 C 123.001606 77.020655 122.90436 74.536436 123.249703 72.014474 C 123.597423 69.495255 124.358072 67.136818 125.531286 64.944282 C 126.704683 62.749186 128.224788 60.921067 130.091783 59.457364 C 131.958594 57.996221 134.163661 57.091808 136.701866 56.743759 C 139.242446 56.398453 142.053224 56.841664 145.131642 58.073209 C 147.442138 59.036219 149.356771 60.354155 150.875543 62.027019 C 152.39669 63.702625 153.531153 65.569181 154.28405 67.627053 C 155.034204 69.6873 155.437554 71.812733 155.496292 74.008653 C 155.552655 76.20183 155.292957 78.31834 154.714639 80.357998 C 154.100117 82.436221 153.07925 84.333554 151.654964 86.045063 C 150.230494 87.75913 148.509945 89.153581 146.488014 90.230607 C 144.468643 91.307816 142.284114 91.925588 139.934796 92.078805 C 137.588037 92.232205 135.183644 91.789816 132.719057 90.751454 Z M 135.49145 77.298215 C 135.76101 78.490559 136.280495 79.569616 137.05009 80.532829 C 137.819868 81.493482 138.752254 82.051625 139.849991 82.204883 C 140.944984 82.360516 142.092226 81.858778 143.283671 80.704238 C 144.170312 79.818542 144.795204 78.780324 145.161091 77.587209 C 145.526977 76.394094 145.710428 75.162182 145.708884 73.891291 C 145.709717 72.623142 145.554775 71.446728 145.248628 70.370095 C 145.092481 69.677212 144.794297 68.956145 144.351701 68.204151 C 143.908922 67.454716 143.350583 66.810187 142.679245 66.270749 C 142.005348 65.731128 141.264485 65.443951 140.454466 65.403917 C 139.646822 65.366626 138.820624 65.731877 137.97313 66.502046 C 137.047916 67.38755 136.376398 68.466158 135.951082 69.734761 C 135.528142 71.006105 135.298791 72.304184 135.260286 73.631372 C 135.221599 74.961119 135.298653 76.1834 135.49145 77.298215 Z M 167.354473 97.39026 C 166.468336 97.658608 165.399963 97.813574 164.149537 97.852598 C 162.899112 97.891622 161.696979 97.795195 160.540578 97.563133 C 159.386737 97.331255 158.483013 96.947519 157.827031 96.409181 C 157.135226 95.832262 156.75065 94.773161 156.673301 93.231877 C 156.595769 91.693153 156.576439 89.844762 156.614946 87.691824 C 156.654019 85.459181 156.740076 83.217043 156.875676 80.965592 C 157.008718 78.713958 157.097334 76.472003 157.133848 74.239177 C 157.09538 70.503823 157.068281 67.435544 157.047797 65.028853 C 157.029689 62.624905 157.058818 60.710531 157.135186 59.285731 C 157.211554 57.860931 157.309416 56.782378 157.42347 56.052262 C 157.616009 55.052521 158.105737 54.321027 158.895212 53.857965 C 159.684503 53.397462 160.771749 53.050916 162.156948 52.818327 C 163.851112 52.510124 165.476453 52.587999 167.035714 53.049577 C 168.594975 53.511154 169.739734 54.300599 170.472549 55.418095 C 174.936284 54.261362 178.641285 54.251589 181.584993 55.388592 C 184.528885 56.523036 186.666582 58.497491 187.993332 61.306472 C 189.322641 64.115637 189.773243 67.484367 189.35044 71.410471 C 189.119077 73.526438 188.485078 75.230263 187.446066 76.519202 C 186.407054 77.808142 185.13722 78.800147 183.634189 79.492475 C 182.133717 80.184987 180.575163 80.646963 178.958527 80.878403 C 177.341892 81.109843 175.84119 81.195245 174.456239 81.137167 C 173.068728 81.078905 171.993284 80.973549 171.222228 80.820547 C 171.182831 82.052491 171.146343 83.351527 171.107647 84.717288 C 171.068951 86.083048 171.011041 87.537467 170.934282 89.075426 C 170.894439 89.846873 170.895912 90.616135 170.933399 91.385406 C 170.970885 92.154676 170.933794 92.887734 170.817372 93.579093 C 170.585885 94.619775 170.163958 95.446162 169.548666 96.063189 C 168.930998 96.677473 168.199478 97.121536 167.354473 97.39026 Z M 171.511961 71.930407 C 174.090977 72.197521 176.014145 72.139818 177.284208 71.754923 C 178.554272 71.370028 179.39058 70.755976 179.796058 69.907831 C 180.198794 69.062062 180.324226 68.137257 180.171986 67.138535 C 180.055944 66.137262 179.515545 65.385977 178.553348 64.884863 C 177.590968 64.386309 176.476082 64.077477 175.205949 63.960743 C 173.935631 63.846568 172.761068 63.90389 171.684634 64.135451 C 171.682915 66.098093 171.625479 68.694705 171.511961 71.930407 Z M 171.511961 71.930407 "
          stroke="#010768" stroke-width="10.19877" stroke-opacity="1" stroke-miterlimit="4"/>
    <g fill="#ffffff" fill-opacity="1">
        <g transform="translate(38.775498, 271.006302)">
            <g>
                <path d="M 19.21875 2.578125 C 17.53125 2.878906 15.507812 3.007812 13.15625 2.96875 C 10.8125 2.9375 8.769531 2.304688 7.03125 1.078125 C 5.226562 -0.253906 4.097656 -1.832031 3.640625 -3.65625 C 3.191406 -5.476562 3.210938 -7.140625 3.703125 -8.640625 C 4.222656 -10.378906 5.648438 -13.578125 7.984375 -18.234375 C 10.328125 -22.898438 13.535156 -29.253906 17.609375 -37.296875 C 18.609375 -39.484375 19.585938 -41.726562 20.546875 -44.03125 C 21.503906 -46.332031 22.460938 -48.601562 23.421875 -50.84375 C 19.160156 -50.300781 15.78125 -49.894531 13.28125 -49.625 C 10.78125 -49.363281 8.773438 -49.296875 7.265625 -49.421875 C 5.753906 -49.546875 4.359375 -49.921875 3.078125 -50.546875 C 0.878906 -51.671875 -0.539062 -53.503906 -1.1875 -56.046875 C -1.4375 -57.085938 -1.566406 -58.328125 -1.578125 -59.765625 C -1.597656 -61.203125 -1.378906 -62.378906 -0.921875 -63.296875 C -0.359375 -64.441406 0.546875 -65.296875 1.796875 -65.859375 C 3.054688 -66.421875 4.316406 -66.863281 5.578125 -67.1875 C 8.066406 -67.84375 11.609375 -68.273438 16.203125 -68.484375 C 20.796875 -68.691406 26.78125 -69.054688 34.15625 -69.578125 C 36.957031 -69.734375 39.734375 -69.703125 42.484375 -69.484375 C 45.234375 -69.265625 47.476562 -68.394531 49.21875 -66.875 C 49.90625 -66.289062 50.429688 -65.316406 50.796875 -63.953125 C 51.160156 -62.585938 51.363281 -61.160156 51.40625 -59.671875 C 51.457031 -58.179688 51.347656 -56.863281 51.078125 -55.71875 C 50.804688 -54.65625 50.351562 -53.582031 49.71875 -52.5 C 49.09375 -51.425781 48.535156 -50.289062 48.046875 -49.09375 C 44.867188 -41.457031 42.097656 -34.941406 39.734375 -29.546875 C 37.367188 -24.148438 35.289062 -19.566406 33.5 -15.796875 C 37.625 -16.390625 41.097656 -16.890625 43.921875 -17.296875 C 46.742188 -17.710938 49.066406 -17.832031 50.890625 -17.65625 C 52.242188 -17.582031 53.59375 -17.382812 54.9375 -17.0625 C 56.289062 -16.75 57.328125 -16.0625 58.046875 -15 C 58.640625 -14.15625 59.054688 -13.019531 59.296875 -11.59375 C 59.546875 -10.175781 59.648438 -8.96875 59.609375 -7.96875 C 59.441406 -5.375 58.359375 -3.300781 56.359375 -1.75 C 55.242188 -0.914062 53.9375 -0.296875 52.4375 0.109375 C 50.945312 0.515625 48.898438 0.8125 46.296875 1 C 43.691406 1.1875 40.222656 1.375 35.890625 1.5625 C 31.554688 1.757812 26 2.097656 19.21875 2.578125 Z M 19.21875 2.578125 "/>
            </g>
        </g>
    </g>
    <g fill="#ffffff" fill-opacity="1">
        <g transform="translate(97.679649, 266.7856)">
            <g>
                <path d="M 23.4375 -1.234375 C 19.644531 -1.734375 16.207031 -2.988281 13.125 -5 C 10.039062 -7.007812 7.460938 -9.566406 5.390625 -12.671875 C 3.316406 -15.785156 1.910156 -19.238281 1.171875 -23.03125 C 0.429688 -26.832031 0.503906 -30.703125 1.390625 -34.640625 C 2.335938 -38.753906 3.992188 -42.351562 6.359375 -45.4375 C 8.722656 -48.519531 11.519531 -51.054688 14.75 -53.046875 C 17.988281 -55.046875 21.410156 -56.46875 25.015625 -57.3125 C 28.628906 -58.15625 32.179688 -58.375 35.671875 -57.96875 C 39.171875 -57.570312 42.347656 -56.523438 45.203125 -54.828125 C 48.054688 -53.128906 50.359375 -50.742188 52.109375 -47.671875 C 53.859375 -44.597656 54.78125 -40.796875 54.875 -36.265625 C 54.882812 -34.328125 54.160156 -32.585938 52.703125 -31.046875 C 51.253906 -29.503906 49.34375 -28.144531 46.96875 -26.96875 C 44.59375 -25.800781 41.957031 -24.851562 39.0625 -24.125 C 36.175781 -23.394531 33.265625 -22.847656 30.328125 -22.484375 C 27.390625 -22.128906 24.710938 -21.953125 22.296875 -21.953125 C 23.640625 -18.878906 25.28125 -16.910156 27.21875 -16.046875 C 29.164062 -15.179688 31.335938 -15.039062 33.734375 -15.625 C 36.128906 -16.21875 38.597656 -17.160156 41.140625 -18.453125 C 43.285156 -19.785156 45.082031 -20.351562 46.53125 -20.15625 C 47.988281 -19.96875 49.515625 -18.90625 51.109375 -16.96875 C 52.203125 -15.757812 52.734375 -14.332031 52.703125 -12.6875 C 52.679688 -11.039062 52.070312 -9.582031 50.875 -8.3125 C 49.34375 -6.6875 47.421875 -5.347656 45.109375 -4.296875 C 42.804688 -3.242188 40.363281 -2.445312 37.78125 -1.90625 C 35.207031 -1.375 32.664062 -1.0625 30.15625 -0.96875 C 27.644531 -0.875 25.40625 -0.960938 23.4375 -1.234375 Z M 21.53125 -32.734375 C 21.53125 -32.734375 22.191406 -32.75 23.515625 -32.78125 C 24.835938 -32.820312 26.472656 -32.910156 28.421875 -33.046875 C 30.378906 -33.191406 32.34375 -33.4375 34.3125 -33.78125 C 36.289062 -34.125 37.914062 -34.609375 39.1875 -35.234375 C 40.46875 -35.859375 41.078125 -36.660156 41.015625 -37.640625 C 40.878906 -39.515625 40.113281 -40.898438 38.71875 -41.796875 C 37.332031 -42.703125 35.65625 -43.171875 33.6875 -43.203125 C 31.71875 -43.234375 29.765625 -42.859375 27.828125 -42.078125 C 25.890625 -41.304688 24.3125 -40.125 23.09375 -38.53125 C 21.882812 -36.945312 21.363281 -35.015625 21.53125 -32.734375 Z M 21.53125 -32.734375 "/>
            </g>
        </g>
    </g>
    <g fill="#ffffff" fill-opacity="1">
        <g transform="translate(153.778865, 262.765883)">
            <g>
                <path d="M 9.9375 -0.34375 C 7.914062 -0.625 6.304688 -1.085938 5.109375 -1.734375 C 3.921875 -2.390625 3.15625 -3.492188 2.8125 -5.046875 C 2.550781 -6.265625 2.335938 -8.007812 2.171875 -10.28125 C 2.015625 -12.5625 1.804688 -15.660156 1.546875 -19.578125 C 1.296875 -23.503906 0.898438 -28.441406 0.359375 -34.390625 C 0.171875 -37.085938 -0.046875 -39.40625 -0.296875 -41.34375 C -0.554688 -43.289062 -0.609375 -44.972656 -0.453125 -46.390625 C -0.296875 -47.816406 0.242188 -49.035156 1.171875 -50.046875 C 2.046875 -50.992188 3.375 -51.71875 5.15625 -52.21875 C 6.945312 -52.726562 8.835938 -52.976562 10.828125 -52.96875 C 12.828125 -52.96875 14.578125 -52.710938 16.078125 -52.203125 C 17.578125 -51.703125 18.488281 -50.929688 18.8125 -49.890625 C 19.800781 -50.734375 20.675781 -51.382812 21.4375 -51.84375 C 22.207031 -52.3125 23.050781 -52.648438 23.96875 -52.859375 C 24.894531 -53.078125 26.09375 -53.238281 27.5625 -53.34375 C 29.476562 -53.476562 31.503906 -53.398438 33.640625 -53.109375 C 35.773438 -52.828125 37.789062 -52.109375 39.6875 -50.953125 C 41.59375 -49.796875 43.164062 -47.96875 44.40625 -45.46875 C 45.988281 -42.414062 47.171875 -38.445312 47.953125 -33.5625 C 48.742188 -28.6875 49.347656 -23.390625 49.765625 -17.671875 C 49.941406 -15.210938 49.984375 -13.171875 49.890625 -11.546875 C 49.804688 -9.921875 49.160156 -8.476562 47.953125 -7.21875 C 47.117188 -6.34375 45.957031 -5.6875 44.46875 -5.25 C 42.976562 -4.820312 41.457031 -4.726562 39.90625 -4.96875 C 38.363281 -5.21875 37.082031 -5.863281 36.0625 -6.90625 C 35.238281 -7.726562 34.664062 -8.539062 34.34375 -9.34375 C 34.03125 -10.144531 33.847656 -11.097656 33.796875 -12.203125 C 33.742188 -13.304688 33.65625 -14.707031 33.53125 -16.40625 C 33.382812 -18.445312 33.179688 -20.441406 32.921875 -22.390625 C 32.671875 -24.347656 32.316406 -26.488281 31.859375 -28.8125 C 31.460938 -31.125 30.84375 -32.835938 30 -33.953125 C 29.15625 -35.078125 28.234375 -35.601562 27.234375 -35.53125 C 25.078125 -35.375 23.609375 -34.117188 22.828125 -31.765625 C 22.054688 -29.421875 21.859375 -25.648438 22.234375 -20.453125 C 22.535156 -16.296875 22.640625 -13.1875 22.546875 -11.125 C 22.460938 -9.070312 22.226562 -7.441406 21.84375 -6.234375 C 21.132812 -4.015625 19.625 -2.394531 17.3125 -1.375 C 15 -0.351562 12.539062 -0.0078125 9.9375 -0.34375 Z M 9.9375 -0.34375 "/>
            </g>
        </g>
    </g>
    <g fill="#ffffff" fill-opacity="1">
        <g transform="translate(203.479326, 259.20466)">
            <g>
                <path d="M 35.8125 1.828125 C 32.65625 2.054688 29.5625 1.898438 26.53125 1.359375 C 23.5 0.816406 20.710938 -0.375 18.171875 -2.21875 C 15.628906 -4.0625 13.507812 -6.789062 11.8125 -10.40625 C 10.113281 -14.019531 9 -18.742188 8.46875 -24.578125 C 8.375 -25.867188 8.28125 -27.359375 8.1875 -29.046875 C 8.09375 -30.742188 8 -32.671875 7.90625 -34.828125 L 7.8125 -34.828125 C 5.769531 -34.679688 4.066406 -35.117188 2.703125 -36.140625 C 0.847656 -37.535156 -0.164062 -39.398438 -0.34375 -41.734375 C -0.476562 -43.734375 0.0195312 -45.328125 1.15625 -46.515625 C 2.53125 -47.972656 4.351562 -48.78125 6.625 -48.9375 L 7.421875 -49 C 7.390625 -50.113281 7.359375 -51.269531 7.328125 -52.46875 C 7.304688 -53.664062 7.28125 -54.910156 7.25 -56.203125 C 7.238281 -57.210938 7.164062 -58.179688 7.03125 -59.109375 C 6.90625 -60.035156 6.90625 -60.910156 7.03125 -61.734375 C 7.226562 -62.992188 7.726562 -64.03125 8.53125 -64.84375 C 9.332031 -65.664062 10.269531 -66.265625 11.34375 -66.640625 C 12.550781 -67.078125 14.007812 -67.429688 15.71875 -67.703125 C 17.425781 -67.972656 19.054688 -67.957031 20.609375 -67.65625 C 22.160156 -67.351562 23.300781 -66.613281 24.03125 -65.4375 C 24.625 -64.476562 24.957031 -63.0625 25.03125 -61.1875 C 25.113281 -59.3125 25.191406 -57.050781 25.265625 -54.40625 C 25.253906 -53.71875 25.269531 -53.019531 25.3125 -52.3125 C 25.363281 -51.613281 25.390625 -50.9375 25.390625 -50.28125 L 26.96875 -50.390625 C 29.53125 -50.578125 31.507812 -49.984375 32.90625 -48.609375 C 34.300781 -47.253906 35.0625 -45.695312 35.1875 -43.9375 C 35.25 -43.113281 35.1875 -42.316406 35 -41.546875 C 34.644531 -39.929688 34.109375 -38.804688 33.390625 -38.171875 C 32.628906 -37.347656 31.695312 -36.867188 30.59375 -36.734375 C 29.5 -36.472656 28.304688 -36.296875 27.015625 -36.203125 L 25.96875 -36.125 C 26.207031 -30.976562 26.597656 -26.6875 27.140625 -23.25 C 27.679688 -19.820312 28.644531 -17.28125 30.03125 -15.625 C 31.414062 -13.96875 33.425781 -13.234375 36.0625 -13.421875 C 37.050781 -13.492188 37.882812 -13.039062 38.5625 -12.0625 C 39.25 -11.082031 39.71875 -9.847656 39.96875 -8.359375 C 40.21875 -6.878906 40.25 -5.367188 40.0625 -3.828125 C 39.882812 -2.296875 39.4375 -0.992188 38.71875 0.078125 C 38.007812 1.160156 37.039062 1.742188 35.8125 1.828125 Z M 35.8125 1.828125 "/>
            </g>
        </g>
    </g>
    <g fill="#ffffff" fill-opacity="1">
        <g transform="translate(242.836592, 256.384565)">
            <g>
                <path d="M 23.4375 -1.234375 C 19.644531 -1.734375 16.207031 -2.988281 13.125 -5 C 10.039062 -7.007812 7.460938 -9.566406 5.390625 -12.671875 C 3.316406 -15.785156 1.910156 -19.238281 1.171875 -23.03125 C 0.429688 -26.832031 0.503906 -30.703125 1.390625 -34.640625 C 2.335938 -38.753906 3.992188 -42.351562 6.359375 -45.4375 C 8.722656 -48.519531 11.519531 -51.054688 14.75 -53.046875 C 17.988281 -55.046875 21.410156 -56.46875 25.015625 -57.3125 C 28.628906 -58.15625 32.179688 -58.375 35.671875 -57.96875 C 39.171875 -57.570312 42.347656 -56.523438 45.203125 -54.828125 C 48.054688 -53.128906 50.359375 -50.742188 52.109375 -47.671875 C 53.859375 -44.597656 54.78125 -40.796875 54.875 -36.265625 C 54.882812 -34.328125 54.160156 -32.585938 52.703125 -31.046875 C 51.253906 -29.503906 49.34375 -28.144531 46.96875 -26.96875 C 44.59375 -25.800781 41.957031 -24.851562 39.0625 -24.125 C 36.175781 -23.394531 33.265625 -22.847656 30.328125 -22.484375 C 27.390625 -22.128906 24.710938 -21.953125 22.296875 -21.953125 C 23.640625 -18.878906 25.28125 -16.910156 27.21875 -16.046875 C 29.164062 -15.179688 31.335938 -15.039062 33.734375 -15.625 C 36.128906 -16.21875 38.597656 -17.160156 41.140625 -18.453125 C 43.285156 -19.785156 45.082031 -20.351562 46.53125 -20.15625 C 47.988281 -19.96875 49.515625 -18.90625 51.109375 -16.96875 C 52.203125 -15.757812 52.734375 -14.332031 52.703125 -12.6875 C 52.679688 -11.039062 52.070312 -9.582031 50.875 -8.3125 C 49.34375 -6.6875 47.421875 -5.347656 45.109375 -4.296875 C 42.804688 -3.242188 40.363281 -2.445312 37.78125 -1.90625 C 35.207031 -1.375 32.664062 -1.0625 30.15625 -0.96875 C 27.644531 -0.875 25.40625 -0.960938 23.4375 -1.234375 Z M 21.53125 -32.734375 C 21.53125 -32.734375 22.191406 -32.75 23.515625 -32.78125 C 24.835938 -32.820312 26.472656 -32.910156 28.421875 -33.046875 C 30.378906 -33.191406 32.34375 -33.4375 34.3125 -33.78125 C 36.289062 -34.125 37.914062 -34.609375 39.1875 -35.234375 C 40.46875 -35.859375 41.078125 -36.660156 41.015625 -37.640625 C 40.878906 -39.515625 40.113281 -40.898438 38.71875 -41.796875 C 37.332031 -42.703125 35.65625 -43.171875 33.6875 -43.203125 C 31.71875 -43.234375 29.765625 -42.859375 27.828125 -42.078125 C 25.890625 -41.304688 24.3125 -40.125 23.09375 -38.53125 C 21.882812 -36.945312 21.363281 -35.015625 21.53125 -32.734375 Z M 21.53125 -32.734375 "/>
            </g>
        </g>
    </g>
    <g fill="#ffffff" fill-opacity="1">
        <g transform="translate(298.935809, 252.364848)">
            <g>
                <path d="M 28.265625 2.375 C 25.117188 2.59375 22.03125 2.429688 19 1.890625 C 15.96875 1.347656 13.179688 0.15625 10.640625 -1.6875 C 8.097656 -3.53125 5.976562 -6.257812 4.28125 -9.875 C 2.582031 -13.488281 1.46875 -18.207031 0.9375 -24.03125 C 0.664062 -26.832031 0.4375 -30.722656 0.25 -35.703125 C 0.0703125 -40.679688 -0.109375 -47.335938 -0.296875 -55.671875 C -0.304688 -56.671875 -0.375 -57.632812 -0.5 -58.5625 C -0.625 -59.5 -0.625 -60.378906 -0.5 -61.203125 C -0.300781 -62.460938 0.191406 -63.5 0.984375 -64.3125 C 1.785156 -65.125 2.734375 -65.71875 3.828125 -66.09375 C 5.015625 -66.53125 6.460938 -66.882812 8.171875 -67.15625 C 9.890625 -67.425781 11.523438 -67.410156 13.078125 -67.109375 C 14.628906 -66.804688 15.769531 -66.066406 16.5 -64.890625 C 17.09375 -63.929688 17.425781 -62.515625 17.5 -60.640625 C 17.570312 -58.765625 17.644531 -56.503906 17.71875 -53.859375 C 17.925781 -47.003906 18.128906 -40.972656 18.328125 -35.765625 C 18.523438 -30.554688 18.921875 -26.222656 19.515625 -22.765625 C 20.109375 -19.304688 21.097656 -16.742188 22.484375 -15.078125 C 23.878906 -13.421875 25.890625 -12.6875 28.515625 -12.875 C 29.503906 -12.945312 30.34375 -12.492188 31.03125 -11.515625 C 31.726562 -10.546875 32.203125 -9.316406 32.453125 -7.828125 C 32.703125 -6.347656 32.734375 -4.835938 32.546875 -3.296875 C 32.359375 -1.753906 31.90625 -0.445312 31.1875 0.625 C 30.476562 1.695312 29.503906 2.28125 28.265625 2.375 Z M 28.265625 2.375 "/>
            </g>
        </g>
    </g>
    <g fill="#ffffff" fill-opacity="1">
        <g transform="translate(84.418587, 342.524584)">
            <g>
                <path d="M 36.421875 4.265625 C 32.660156 4.890625 28.769531 5.019531 24.75 4.65625 C 20.726562 4.300781 16.957031 3.335938 13.4375 1.765625 C 9.914062 0.203125 6.960938 -1.992188 4.578125 -4.828125 C 3.535156 -6.222656 2.742188 -7.851562 2.203125 -9.71875 C 1.660156 -11.582031 1.585938 -13.425781 1.984375 -15.25 C 2.390625 -17.070312 3.375 -18.570312 4.9375 -19.75 C 6.882812 -21.175781 8.675781 -21.960938 10.3125 -22.109375 C 11.945312 -22.253906 13.507812 -22 15 -21.34375 C 16.488281 -20.6875 17.890625 -19.816406 19.203125 -18.734375 C 20.847656 -17.859375 22.503906 -16.992188 24.171875 -16.140625 C 25.847656 -15.296875 27.460938 -14.925781 29.015625 -15.03125 C 30.566406 -15.144531 31.945312 -16.125 33.15625 -17.96875 C 33.875 -19.4375 33.945312 -20.675781 33.375 -21.6875 C 32.8125 -22.707031 31.929688 -23.566406 30.734375 -24.265625 C 29.535156 -24.972656 28.273438 -25.578125 26.953125 -26.078125 C 25.628906 -26.578125 24.539062 -27 23.6875 -27.34375 C 20.957031 -28.488281 18.34375 -29.53125 15.84375 -30.46875 C 13.34375 -31.414062 11.078125 -32.535156 9.046875 -33.828125 C 7.015625 -35.117188 5.363281 -36.804688 4.09375 -38.890625 C 2.820312 -40.972656 2.066406 -43.707031 1.828125 -47.09375 C 1.578125 -51.476562 2.445312 -55.300781 4.4375 -58.5625 C 6.4375 -61.820312 9.257812 -64.445312 12.90625 -66.4375 C 16.550781 -68.4375 20.710938 -69.660156 25.390625 -70.109375 C 29.472656 -70.347656 33.40625 -70.101562 37.1875 -69.375 C 40.976562 -68.644531 44.378906 -67.34375 47.390625 -65.46875 C 50.398438 -63.59375 52.847656 -60.992188 54.734375 -57.671875 C 55.710938 -56.222656 56.171875 -54.65625 56.109375 -52.96875 C 56.054688 -51.28125 55.550781 -49.773438 54.59375 -48.453125 C 53.632812 -47.128906 52.234375 -46.191406 50.390625 -45.640625 C 48.617188 -44.921875 46.84375 -44.71875 45.0625 -45.03125 C 43.28125 -45.34375 41.519531 -45.921875 39.78125 -46.765625 C 38.039062 -47.617188 36.375 -48.5 34.78125 -49.40625 C 33.195312 -50.320312 31.695312 -51.019531 30.28125 -51.5 C 28.863281 -51.988281 27.578125 -52.0625 26.421875 -51.71875 C 25.265625 -51.375 24.257812 -50.347656 23.40625 -48.640625 C 22.894531 -47.441406 22.992188 -46.394531 23.703125 -45.5 C 24.410156 -44.601562 25.398438 -43.859375 26.671875 -43.265625 C 27.953125 -42.679688 29.253906 -42.175781 30.578125 -41.75 C 31.898438 -41.320312 32.957031 -40.957031 33.75 -40.65625 C 36.75 -39.695312 39.644531 -38.582031 42.4375 -37.3125 C 45.238281 -36.050781 47.769531 -34.578125 50.03125 -32.890625 C 52.289062 -31.203125 54.117188 -29.234375 55.515625 -26.984375 C 56.910156 -24.734375 57.65625 -22.113281 57.75 -19.125 C 57.957031 -14.5625 57.0625 -10.644531 55.0625 -7.375 C 53.070312 -4.113281 50.425781 -1.53125 47.125 0.375 C 43.832031 2.28125 40.265625 3.578125 36.421875 4.265625 Z M 36.421875 4.265625 "/>
            </g>
        </g>
    </g>
    <g fill="#ffffff" fill-opacity="1">
        <g transform="translate(142.972121, 338.329005)">
            <g>
                <path d="M 11 4.578125 C 8.976562 4.316406 7.367188 3.863281 6.171875 3.21875 C 4.984375 2.570312 4.21875 1.460938 3.875 -0.109375 C 3.601562 -1.328125 3.34375 -3.070312 3.09375 -5.34375 C 2.84375 -7.613281 2.585938 -10.707031 2.328125 -14.625 C 2.078125 -18.539062 1.769531 -23.476562 1.40625 -29.4375 C 1.09375 -33 0.703125 -36.597656 0.234375 -40.234375 C -0.222656 -43.878906 -0.609375 -47.484375 -0.921875 -51.046875 C -1.222656 -54.546875 -1.40625 -57.53125 -1.46875 -60 C -1.53125 -62.46875 -1.128906 -64.195312 -0.265625 -65.1875 C 0.597656 -66.195312 1.847656 -66.929688 3.484375 -67.390625 C 5.128906 -67.859375 6.84375 -68.128906 8.625 -68.203125 C 10.414062 -68.273438 11.972656 -68.125 13.296875 -67.75 C 14.492188 -67.414062 15.566406 -66.785156 16.515625 -65.859375 C 17.460938 -64.929688 18.171875 -63.628906 18.640625 -61.953125 C 18.953125 -60.859375 19.109375 -59.695312 19.109375 -58.46875 C 19.109375 -57.238281 19.1875 -55.976562 19.34375 -54.6875 C 19.613281 -52.539062 19.847656 -50.476562 20.046875 -48.5 C 20.253906 -46.519531 20.445312 -44.617188 20.625 -42.796875 C 21.757812 -43.523438 23.070312 -44.085938 24.5625 -44.484375 C 26.0625 -44.890625 27.488281 -45.140625 28.84375 -45.234375 C 34.613281 -45.648438 39.273438 -43.753906 42.828125 -39.546875 C 45.066406 -36.828125 46.851562 -33.109375 48.1875 -28.390625 C 49.53125 -23.671875 50.410156 -18.445312 50.828125 -12.71875 C 50.992188 -10.257812 51.035156 -8.21875 50.953125 -6.59375 C 50.867188 -4.976562 50.222656 -3.535156 49.015625 -2.265625 C 47.753906 -0.890625 46.101562 -0.128906 44.0625 0.015625 C 42.019531 0.160156 40.238281 -0.53125 38.71875 -2.0625 C 37.894531 -2.882812 37.320312 -3.691406 37 -4.484375 C 36.675781 -5.285156 36.488281 -6.242188 36.4375 -7.359375 C 36.394531 -8.484375 36.3125 -9.894531 36.1875 -11.59375 C 36.039062 -13.632812 35.835938 -15.628906 35.578125 -17.578125 C 35.316406 -19.523438 34.957031 -21.65625 34.5 -23.96875 C 34.09375 -26.300781 33.46875 -28.019531 32.625 -29.125 C 31.789062 -30.238281 30.878906 -30.757812 29.890625 -30.6875 C 27.710938 -30.53125 25.972656 -29.257812 24.671875 -26.875 C 23.378906 -24.488281 22.921875 -20.695312 23.296875 -15.5 C 23.585938 -11.351562 23.691406 -8.25 23.609375 -6.1875 C 23.523438 -4.125 23.289062 -2.488281 22.90625 -1.28125 C 22.238281 0.9375 20.738281 2.554688 18.40625 3.578125 C 16.070312 4.597656 13.601562 4.929688 11 4.578125 Z M 11 4.578125 "/>
            </g>
        </g>
    </g>
    <g fill="#ffffff" fill-opacity="1">
        <g transform="translate(193.373815, 334.717537)">
            <g>
                <path d="M 17.34375 -0.09375 C 13.3125 -1.445312 10.046875 -3.5625 7.546875 -6.4375 C 5.054688 -9.3125 3.269531 -12.578125 2.1875 -16.234375 C 1.101562 -19.890625 0.679688 -23.648438 0.921875 -27.515625 C 1.171875 -31.390625 2.070312 -35.050781 3.625 -38.5 C 5.175781 -41.957031 7.285156 -44.894531 9.953125 -47.3125 C 12.628906 -49.738281 15.878906 -51.351562 19.703125 -52.15625 C 23.523438 -52.96875 27.84375 -52.609375 32.65625 -51.078125 C 36.257812 -49.859375 39.304688 -48.0625 41.796875 -45.6875 C 44.285156 -43.3125 46.210938 -40.597656 47.578125 -37.546875 C 48.941406 -34.503906 49.785156 -31.320312 50.109375 -28 C 50.441406 -24.675781 50.28125 -21.429688 49.625 -18.265625 C 48.914062 -15.046875 47.570312 -12.054688 45.59375 -9.296875 C 43.613281 -6.546875 41.144531 -4.238281 38.1875 -2.375 C 35.238281 -0.519531 31.988281 0.644531 28.4375 1.125 C 24.894531 1.613281 21.195312 1.207031 17.34375 -0.09375 Z M 20.09375 -20.828125 C 20.632812 -19.035156 21.539062 -17.453125 22.8125 -16.078125 C 24.09375 -14.703125 25.570312 -13.957031 27.25 -13.84375 C 28.925781 -13.726562 30.613281 -14.617188 32.3125 -16.515625 C 33.550781 -17.941406 34.382812 -19.582031 34.8125 -21.4375 C 35.238281 -23.289062 35.382812 -25.179688 35.25 -27.109375 C 35.113281 -29.046875 34.75 -30.8125 34.15625 -32.40625 C 33.84375 -33.445312 33.304688 -34.507812 32.546875 -35.59375 C 31.796875 -36.6875 30.878906 -37.601562 29.796875 -38.34375 C 28.722656 -39.09375 27.570312 -39.453125 26.34375 -39.421875 C 25.113281 -39.398438 23.894531 -38.753906 22.6875 -37.484375 C 21.382812 -36.035156 20.476562 -34.320312 19.96875 -32.34375 C 19.46875 -30.375 19.257812 -28.378906 19.34375 -26.359375 C 19.4375 -24.335938 19.6875 -22.492188 20.09375 -20.828125 Z M 20.09375 -20.828125 "/>
            </g>
        </g>
    </g>
    <g fill="#ffffff" fill-opacity="1">
        <g transform="translate(244.21378, 331.074664)">
            <g>
                <path d="M 19.828125 9.859375 C 18.503906 10.359375 16.894531 10.707031 15 10.90625 C 13.113281 11.101562 11.28125 11.085938 9.5 10.859375 C 7.71875 10.628906 6.304688 10.140625 5.265625 9.390625 C 4.148438 8.597656 3.445312 7.035156 3.15625 4.703125 C 2.875 2.378906 2.644531 -0.414062 2.46875 -3.6875 C 2.289062 -7.09375 2.175781 -10.507812 2.125 -13.9375 C 2.082031 -17.375 1.96875 -20.789062 1.78125 -24.1875 C 1.3125 -29.851562 0.929688 -34.507812 0.640625 -38.15625 C 0.359375 -41.800781 0.195312 -44.710938 0.15625 -46.890625 C 0.113281 -49.066406 0.144531 -50.71875 0.25 -51.84375 C 0.425781 -53.375 1.09375 -54.535156 2.25 -55.328125 C 3.40625 -56.117188 5.015625 -56.765625 7.078125 -57.265625 C 9.628906 -57.921875 12.113281 -57.976562 14.53125 -57.4375 C 16.945312 -56.90625 18.765625 -55.828125 19.984375 -54.203125 C 26.640625 -56.453125 32.265625 -56.875 36.859375 -55.46875 C 41.460938 -54.0625 44.925781 -51.296875 47.25 -47.171875 C 49.570312 -43.054688 50.625 -37.988281 50.40625 -31.96875 C 50.28125 -28.738281 49.5 -26.085938 48.0625 -24.015625 C 46.625 -21.941406 44.800781 -20.300781 42.59375 -19.09375 C 40.394531 -17.882812 38.082031 -17.015625 35.65625 -16.484375 C 33.226562 -15.953125 30.957031 -15.65625 28.84375 -15.59375 C 26.738281 -15.53125 25.09375 -15.570312 23.90625 -15.71875 C 23.976562 -13.84375 24.054688 -11.863281 24.140625 -9.78125 C 24.234375 -7.707031 24.304688 -5.5 24.359375 -3.15625 C 24.390625 -1.976562 24.472656 -0.8125 24.609375 0.34375 C 24.753906 1.507812 24.773438 2.628906 24.671875 3.703125 C 24.429688 5.304688 23.878906 6.609375 23.015625 7.609375 C 22.148438 8.609375 21.085938 9.359375 19.828125 9.859375 Z M 23.375 -29.25 C 27.320312 -29.125 30.238281 -29.421875 32.125 -30.140625 C 34.007812 -30.867188 35.210938 -31.894531 35.734375 -33.21875 C 36.253906 -34.550781 36.34375 -35.96875 36 -37.46875 C 35.71875 -38.976562 34.816406 -40.0625 33.296875 -40.71875 C 31.773438 -41.375 30.039062 -41.71875 28.09375 -41.75 C 26.15625 -41.789062 24.390625 -41.578125 22.796875 -41.109375 C 23.003906 -38.117188 23.195312 -34.164062 23.375 -29.25 Z M 23.375 -29.25 "/>
            </g>
        </g>
    </g>
</svg>